HIERARCHY
ROOT joint_0
{
	OFFSET 0.000000 0.000000 0.000000
	CHANNELS 6 Xposition Yposition Zposition Zrotation Yrotation Xrotation 
	JOINT joint_1
	{
		OFFSET 6.590088 -1.122192 114.019043
		CHANNELS 3 Zrotation Yrotation Xrotation
		JOINT joint_2
		{
			OFFSET -5.956055 -0.820435 104.151001
			CHANNELS 3 Zrotation Yrotation Xrotation
			JOINT joint_3
			{
				OFFSET -7.343506 -1.103027 103.942993
				CHANNELS 3 Zrotation Yrotation Xrotation
				JOINT joint_4
				{
					OFFSET 3.109131 -2.857056 147.715942
					CHANNELS 3 Zrotation Yrotation Xrotation
					JOINT joint_5
					{
						OFFSET 28.592285 -2.852295 87.703979
						CHANNELS 3 Zrotation Yrotation Xrotation
						End Site
						{
							OFFSET 0.000000 0.000000 0.000000
						}
					}
				}
				JOINT joint_6
				{
					OFFSET -0.332520 -33.687378 82.401978
					CHANNELS 3 Zrotation Yrotation Xrotation
					JOINT joint_7
					{
						OFFSET -7.397461 -168.719177 -22.750977
						CHANNELS 3 Zrotation Yrotation Xrotation
						JOINT joint_8
						{
							OFFSET 17.065918 -24.903137 -272.721069
							CHANNELS 3 Zrotation Yrotation Xrotation
							JOINT joint_9
							{
								OFFSET 33.311279 -37.031616 -278.192993
								CHANNELS 3 Zrotation Yrotation Xrotation
								End Site
								{
									OFFSET 0.000000 0.000000 0.000000
								}
							}
						}
					}
				}
				JOINT joint_10
				{
					OFFSET 3.914307 30.461670 83.552979
					CHANNELS 3 Zrotation Yrotation Xrotation
					JOINT joint_11
					{
						OFFSET 15.543701 166.845459 -30.963013
						CHANNELS 3 Zrotation Yrotation Xrotation
						JOINT joint_12
						{
							OFFSET 35.734863 35.017700 -269.786011
							CHANNELS 3 Zrotation Yrotation Xrotation
							JOINT joint_13
							{
								OFFSET 70.506592 13.977783 -273.320007
								CHANNELS 3 Zrotation Yrotation Xrotation
								End Site
								{
									OFFSET 0.000000 0.000000 0.000000
								}
							}
						}
					}
				}
			}
		}
	}
	JOINT joint_14
	{
		OFFSET -0.314697 -95.093994 -116.004028
		CHANNELS 3 Zrotation Yrotation Xrotation
		JOINT joint_15
		{
			OFFSET -22.490723 2.017883 -455.510986
			CHANNELS 3 Zrotation Yrotation Xrotation
			JOINT joint_16
			{
				OFFSET -46.427490 7.144104 -496.360985
				CHANNELS 3 Zrotation Yrotation Xrotation
				JOINT joint_17
				{
					OFFSET 209.055420 -37.122803 -85.191002
					CHANNELS 3 Zrotation Yrotation Xrotation
					End Site
					{
						OFFSET 0.000000 0.000000 0.000000
					}
				}
			}
		}
	}
	JOINT joint_18
	{
		OFFSET 5.652832 94.642578 -116.244019
		CHANNELS 3 Zrotation Yrotation Xrotation
		JOINT joint_19
		{
			OFFSET -12.379883 -7.332642 -455.843994
			CHANNELS 3 Zrotation Yrotation Xrotation
			JOINT joint_20
			{
				OFFSET -45.227051 -8.172241 -496.457985
				CHANNELS 3 Zrotation Yrotation Xrotation
				JOINT joint_21
				{
					OFFSET 210.522949 -11.530396 -88.809004
					CHANNELS 3 Zrotation Yrotation Xrotation
					End Site
					{
						OFFSET 0.000000 0.000000 0.000000
					}
				}
			}
		}
	}
}
MOTION
Frames: 10
Frame Time: 0.016667
-2778.747314 950.166199 1184.050049 0.733549 -1.305084 0.266322 -0.070678 1.810314 0.478951 -0.118689 -0.345196 -0.104351 -0.096103 0.419206 0.095112 -0.599331 -3.608749 1.489778 0.000000 0.000000 0.000000 3.070213 0.901004 0.514795 -0.057138 1.331851 0.326776 -0.051632 3.813104 4.194130 0.000000 0.000000 0.000000 1.352175 2.878269 0.629820 -0.971169 2.778906 -2.603753 -0.867545 4.780577 -4.233100 0.000000 0.000000 0.000000 0.461064 -0.662096 -1.140135 0.478029 1.345697 -1.306338 0.321765 1.585580 0.412737 0.000000 0.000000 0.000000 1.576990 -1.026311 -0.151423 1.489464 0.372320 2.246338 1.620675 1.342634 0.754699 0.000000 0.000000 0.000000 
-2778.641846 950.178101 1184.008057 0.726047 -1.329343 0.266884 -0.078897 1.806321 0.485424 -0.127398 -0.344155 -0.106394 -0.104594 0.418890 0.096415 -0.596282 -3.584897 1.482877 0.000000 0.000000 0.000000 3.077719 0.910955 0.529354 -0.058380 1.344604 0.304845 -0.049339 3.811567 4.210012 0.000000 0.000000 0.000000 1.356213 2.887510 0.607040 -0.967649 2.783489 -2.579889 -0.867542 4.786135 -4.235322 0.000000 0.000000 0.000000 0.463496 -0.658421 -1.140595 0.480623 1.398084 -1.305693 0.323695 1.567172 0.410251 0.000000 0.000000 0.000000 1.580994 -1.019006 -0.159014 1.492308 0.419931 2.257517 1.625665 1.323279 0.755738 0.000000 0.000000 0.000000 
-2778.538574 950.196838 1183.968018 0.713456 -1.350098 0.267215 -0.084887 1.803896 0.492568 -0.133921 -0.344934 -0.107984 -0.110880 0.420097 0.097939 -0.593360 -3.561079 1.476337 0.000000 0.000000 0.000000 3.086537 0.920160 0.541708 -0.059544 1.356571 0.285283 -0.047226 3.807065 4.220706 0.000000 0.000000 0.000000 1.359544 2.893837 0.585676 -0.964474 2.786421 -2.567298 -0.865232 4.790082 -4.228359 0.000000 0.000000 0.000000 0.468070 -0.661093 -1.141870 0.485308 1.454043 -1.303974 0.327695 1.547511 0.408385 0.000000 0.000000 0.000000 1.586390 -1.012072 -0.167895 1.496548 0.461264 2.270770 1.632014 1.307784 0.757559 0.000000 0.000000 0.000000 
-2778.433838 950.221680 1183.927979 0.696901 -1.368649 0.267375 -0.089279 1.802738 0.500954 -0.138995 -0.347739 -0.110442 -0.115581 0.422587 0.099978 -0.590613 -3.538084 1.470235 0.000000 0.000000 0.000000 3.096356 0.928796 0.553000 -0.060735 1.368025 0.266498 -0.045339 3.802027 4.228822 0.000000 0.000000 0.000000 1.362015 2.898265 0.565072 -0.961572 2.788231 -2.561098 -0.861674 4.793479 -4.216511 0.000000 0.000000 0.000000 0.473964 -0.667827 -1.143671 0.491278 1.512410 -1.301510 0.332971 1.527339 0.406948 0.000000 0.000000 0.000000 1.592939 -1.005634 -0.177618 1.501932 0.499505 2.285116 1.639475 1.294434 0.759963 0.000000 0.000000 0.000000 
-2778.320312 950.252014 1183.885010 0.680030 -1.386484 0.267621 -0.094350 1.800412 0.508082 -0.144622 -0.348967 -0.112263 -0.120987 0.423583 0.101008 -0.588363 -3.515453 1.465664 0.000000 0.000000 0.000000 3.108319 0.936491 0.566585 -0.062080 1.379036 0.245738 -0.043622 3.797729 4.236345 0.000000 0.000000 0.000000 1.366662 2.903755 0.544505 -0.958657 2.790661 -2.554306 -0.858472 4.796192 -4.205840 0.000000 0.000000 0.000000 0.479952 -0.675160 -1.145588 0.497371 1.571387 -1.299614 0.338310 1.506552 0.405427 0.000000 0.000000 0.000000 1.599389 -0.999097 -0.188861 1.507135 0.536894 2.301516 1.646918 1.282340 0.762429 0.000000 0.000000 0.000000 
-2778.195068 950.288025 1183.838013 0.663206 -1.403612 0.268348 -0.100110 1.794946 0.512108 -0.150666 -0.347764 -0.113002 -0.126931 0.423201 0.102013 -0.586732 -3.493481 1.462960 0.000000 0.000000 0.000000 3.120251 0.942809 0.583302 -0.063638 1.389021 0.220690 -0.042047 3.795604 4.245225 0.000000 0.000000 0.000000 1.371675 2.911454 0.523222 -0.955546 2.795028 -2.545471 -0.856099 4.797358 -4.198014 0.000000 0.000000 0.000000 0.485795 -0.683825 -1.147961 0.503347 1.632759 -1.298405 0.343452 1.484667 0.403630 0.000000 0.000000 0.000000 1.605679 -0.992567 -0.202750 1.512029 0.573830 2.321044 1.654345 1.270855 0.764920 0.000000 0.000000 0.000000 
-2778.060303 950.328552 1183.787964 0.645528 -1.419780 0.269054 -0.106559 1.788740 0.515108 -0.157365 -0.347575 -0.114077 -0.133475 0.423696 0.103163 -0.585646 -3.473121 1.461813 0.000000 0.000000 0.000000 3.135619 0.948063 0.601894 -0.065306 1.398605 0.193306 -0.040453 3.793626 4.254533 0.000000 0.000000 0.000000 1.378703 2.920316 0.501768 -0.952364 2.800132 -2.535981 -0.854192 4.797012 -4.191655 0.000000 0.000000 0.000000 0.491791 -0.693668 -1.150188 0.509520 1.695128 -1.297728 0.348726 1.462580 0.401851 0.000000 0.000000 0.000000 1.612161 -0.986102 -0.217974 1.517039 0.609879 2.342515 1.662045 1.259882 0.767553 0.000000 0.000000 0.000000 
-2777.916260 950.369568 1183.737061 0.628732 -1.433747 0.269486 -0.112668 1.779898 0.517420 -0.163611 -0.345908 -0.114454 -0.139701 0.422576 0.103573 -0.585043 -3.452292 1.462175 0.000000 0.000000 0.000000 3.147342 0.953419 0.621683 -0.066966 1.407786 0.167450 -0.039153 3.791331 4.260575 0.000000 0.000000 0.000000 1.384827 2.929527 0.479591 -0.949378 2.805270 -2.522290 -0.853761 4.796629 -4.190901 0.000000 0.000000 0.000000 0.497684 -0.703276 -1.151795 0.515645 1.753972 -1.297905 0.353924 1.440691 0.400077 0.000000 0.000000 0.000000 1.618023 -0.981207 -0.232513 1.521460 0.644815 2.363354 1.669054 1.251027 0.770013 0.000000 0.000000 0.000000 
-2777.760254 950.408264 1183.688965 0.613176 -1.444121 0.269151 -0.119391 1.766829 0.520186 -0.170493 -0.344333 -0.115401 -0.146484 0.421987 0.104425 -0.584489 -3.432057 1.462648 0.000000 0.000000 0.000000 3.158252 0.958504 0.642989 -0.068614 1.416617 0.142432 -0.038019 3.788221 4.263899 0.000000 0.000000 0.000000 1.392752 2.939438 0.455452 -0.946849 2.809839 -2.501190 -0.856141 4.795786 -4.200792 0.000000 0.000000 0.000000 0.503048 -0.712116 -1.151525 0.521385 1.805521 -1.299870 0.358678 1.421308 0.398566 0.000000 0.000000 0.000000 1.623153 -0.978813 -0.244652 1.525276 0.677660 2.381648 1.675148 1.244892 0.772238 0.000000 0.000000 0.000000 
-2777.596191 950.447449 1183.640015 0.598176 -1.452408 0.268371 -0.125829 1.752487 0.522673 -0.177082 -0.344074 -0.116538 -0.152918 0.422019 0.105560 -0.584314 -3.411888 1.464266 0.000000 0.000000 0.000000 3.166547 0.963331 0.665001 -0.070229 1.424808 0.118693 -0.037121 3.784736 4.264475 0.000000 0.000000 0.000000 1.399451 2.949462 0.430094 -0.944520 2.814208 -2.475785 -0.860051 4.794662 -4.216480 0.000000 0.000000 0.000000 0.508243 -0.721047 -1.150430 0.527024 1.853986 -1.302670 0.363299 1.402625 0.397127 0.000000 0.000000 0.000000 1.627874 -0.977899 -0.255848 1.528729 0.709333 2.399095 1.680748 1.240813 0.774369 0.000000 0.000000 0.000000 
